<svg xmlns="http://www.w3.org/2000/svg" width="33" height="33" viewBox="0 0 33 33">
  <g id="icon-LinkedIn" transform="translate(-1194 -8203.01)">
    <circle id="icon-LinkedIn-2" data-name="icon-LinkedIn" cx="16.5" cy="16.5" r="16.5" transform="translate(1194 8203.01)" fill="#fff"/>
    <path id="Icon_zocial-linkedin" data-name="Icon zocial-linkedin" d="M-.18,2.141A1.8,1.8,0,0,1,.406.76,2.149,2.149,0,0,1,1.929.216a2.085,2.085,0,0,1,1.49.536A1.888,1.888,0,0,1,4,2.191,1.763,1.763,0,0,1,3.436,3.53a2.153,2.153,0,0,1-1.54.552H1.879A2.049,2.049,0,0,1,.389,3.53,1.855,1.855,0,0,1-.18,2.141ZM.038,16.788V5.606H3.754V16.788H.038Zm5.775,0H9.529V10.544a2.41,2.41,0,0,1,.134-.9,2.428,2.428,0,0,1,.711-.963,1.819,1.819,0,0,1,1.2-.393q1.875,0,1.875,2.528v5.976h3.716V10.377A5.388,5.388,0,0,0,15.99,6.619a4,4,0,0,0-3.1-1.281A3.8,3.8,0,0,0,9.529,7.2V7.23H9.512L9.529,7.2V5.606H5.813q.033.536.033,3.331t-.033,7.851Z" transform="translate(1203.158 8209.794)" fill="#00437a"/>
  </g>
</svg>
